<?xml version="1.0" standalone="no"?><svg xmlns="http://www.w3.org/2000/svg" viewBox="0 0 1440 320"><path fill="#eaf4f4" fill-opacity="1" d="M0,256L15,234.7C30,213,60,171,90,133.3C120,96,150,64,180,64C210,64,240,96,270,117.3C300,139,330,149,360,144C390,139,420,117,450,122.7C480,128,510,160,540,186.7C570,213,600,235,630,213.3C660,192,690,128,720,112C750,96,780,128,810,149.3C840,171,870,181,900,197.3C930,213,960,235,990,245.3C1020,256,1050,256,1080,256C1110,256,1140,256,1170,256C1200,256,1230,256,1260,266.7C1290,277,1320,299,1350,266.7C1380,235,1410,149,1425,106.7L1440,64L1440,320L1425,320C1410,320,1380,320,1350,320C1320,320,1290,320,1260,320C1230,320,1200,320,1170,320C1140,320,1110,320,1080,320C1050,320,1020,320,990,320C960,320,930,320,900,320C870,320,840,320,810,320C780,320,750,320,720,320C690,320,660,320,630,320C600,320,570,320,540,320C510,320,480,320,450,320C420,320,390,320,360,320C330,320,300,320,270,320C240,320,210,320,180,320C150,320,120,320,90,320C60,320,30,320,15,320L0,320Z"></path></svg>